<?xml version="1.0" encoding="UTF-8"?>
<svg width="873px" height="616px" viewBox="0 0 873 616" version="1.1" xmlns="http://www.w3.org/2000/svg" xmlns:xlink="http://www.w3.org/1999/xlink">
    <!-- Generator: Sketch 60 (88103) - https://sketch.com -->
    <title>blobs</title>
    <desc>Created with Sketch.</desc>
    <g id="Microsite" stroke="none" stroke-width="1" fill="none" fill-rule="evenodd">
        <g id="Hero-Carousel-1" transform="translate(-283.000000, -462.000000)">
            <g id="Group">
                <g id="hero" transform="translate(0.000000, 0.000000)">
                    <g id="hero-image" transform="translate(283.000000, 462.000000)">
                        <g id="blobs">
                            <path d="M71.2898083,564.333154 C52.5623409,541.887525 52.0421335,490.164989 71.2898083,466.255515 C90.537483,442.346041 217.468095,383.792227 233.074318,371.593516 C248.68054,359.394804 301.22149,265.708702 408.38422,254.973836 C515.54695,244.23897 565.486862,317.919186 639.356317,348.17199 C713.225771,378.424794 847.837032,470.184784 834.236604,552 C820.636176,633.815216 492.137615,612.64005 455.723096,612.64005 C435.022022,612.64005 326.490154,617.14153 233.074318,609.224411 C139.658481,601.307293 90.0172756,586.778783 71.2898083,564.333154 Z" id="bottom-blob" fill="#DEE5E1"></path>
                            <path d="M46.736604,292 C24.236604,221 -25.263396,157 15.736604,82 C56.736604,7 137.736604,4.5 165.736604,11 C193.736604,17.5 231.236604,50.5 276.736604,50.5 C322.236604,50.5 432.736604,30 492.736604,67.5 C552.736604,105 453.236604,179.5 419.236604,208 C385.236604,236.5 308.736604,268 278.736604,328 C248.736604,388 244.736604,512 151.736604,512 C58.736604,512 46.736604,458 46.736604,416 C46.736604,374 69.236604,363 46.736604,292 Z" id="left-blob" fill="#3178A4" opacity="0.5"></path>
                            <path d="M232.236604,175 C282.291417,134.260944 359.736604,158 400.736604,123.5 C441.736604,89 535.736604,1.42108547e-13 622.236604,1.42108547e-13 C708.736604,1.42108547e-13 763.236604,37 783.736604,89.5 C804.236604,142 783.736604,193 804.236604,245.5 C824.736604,298 895.236604,374 864.736604,443 C834.236604,512 708.736604,475.5 670.236604,462 C631.736604,448.5 580.236604,362 511.236604,345 C442.236604,328 241.736604,337 221.236604,278 C200.736604,219 182.181791,215.739056 232.236604,175 Z" id="right-blob" fill="#3178A4"></path>
                        </g>
                    </g>
                </g>
            </g>
        </g>
    </g>
</svg>
