<svg xmlns="http://www.w3.org/2000/svg" xmlns:xlink="http://www.w3.org/1999/xlink" viewBox="0 0 1600 1400"><defs><style>.cls-1{fill:#fff;}.cls-2{fill:#dde4e0;}.cls-3{fill:#302e2b;}.cls-4{fill:#dab6a5;}.cls-5{fill:#b4c8cc;}.cls-6{mask:url(#mask);}.cls-7{fill:#6f5b51;}.cls-8{fill:#97b2b5;}.cls-9{mask:url(#mask-2);}.cls-10{fill:#686c6f;}.cls-11{mask:url(#mask-3);}.cls-12{fill:#a1acb4;}.cls-13{mask:url(#mask-4);}.cls-14{fill:#d7dcdf;}.cls-15{fill:#e8ebed;}.cls-16{fill:#c5ccd1;}.cls-17{mask:url(#mask-5);}.cls-18{fill:#2a6285;}.cls-19{fill:#344d5e;}.cls-20{fill:#3278a4;}.cls-21{fill:#f8f8f5;}.cls-22{mask:url(#mask-6);}.cls-23{mask:url(#mask-7);}.cls-24{fill:#d0a38f;}.cls-25{mask:url(#mask-8);}.cls-26{fill:#223d50;}.cls-27{mask:url(#mask-9);}.cls-28{mask:url(#mask-10);}.cls-29{fill:#6a7c89;}.cls-30{filter:url(#luminosity-noclip-4);}.cls-31{filter:url(#luminosity-noclip-3);}.cls-32{filter:url(#luminosity-noclip-2);}.cls-33{filter:url(#luminosity-noclip);}</style><filter id="luminosity-noclip" x="661.32" y="247.7" width="154.64" height="149.41" filterUnits="userSpaceOnUse" color-interpolation-filters="sRGB"><feFlood flood-color="#fff" result="bg"/><feBlend in="SourceGraphic" in2="bg"/></filter><mask id="mask" x="661.32" y="247.7" width="154.64" height="149.41" maskUnits="userSpaceOnUse"><g class="cls-33"><path class="cls-1" d="M706.23,304.06c20-38.65,81.81-26.6,87-25.5l.29.06h.07a20.17,20.17,0,0,1-9,39.32,14.83,14.83,0,0,0-14.51,4.53l-38.44,43.93s-8,34.83-22.75,15.14S685.36,344.43,706.23,304.06Z"/><polygon points="674.78 344 777.41 310.88 777.82 247.7 661.32 268.47 674.78 344"/></g></mask><mask id="mask-2" x="620.93" y="439.89" width="275.35" height="835.9" maskUnits="userSpaceOnUse"><path class="cls-1" d="M670,1260.88,647.4,858.41l222.09-31.56L758.44,996l-23.11,274S692.49,1287.94,670,1260.88Z"/><polyline class="cls-1" points="846.94 1260.88 869.49 826.85 647.4 826.85"/><path d="M813.82,439.89l55.67,387c-12.74,37.57-101.22,41.72-222.09,31.56L637.25,507.8Z"/></mask><mask id="mask-3" x="178.45" y="586.98" width="917.75" height="543.94" maskUnits="userSpaceOnUse"><polygon class="cls-1" points="759.4 1130.92 178.45 1090.92 178.45 686.48 759.4 726.48 759.4 1130.92"/></mask><mask id="mask-4" x="178.45" y="537.36" width="1048.9" height="321.81" maskUnits="userSpaceOnUse"><polygon class="cls-1" points="1155.43 631.64 992.74 631.64 681.63 722.67 248.29 703.62 178.45 759.18 759.4 859.18 1155.43 631.64"/></mask><mask id="mask-5" x="35.35" y="97.17" width="1542.63" height="1230.67" maskUnits="userSpaceOnUse"><path class="cls-1" d="M1196.82,165.39c-97.88-65.74-224.61-83.47-339.12-55.33S641.46,210,569.43,303.39c-50.55,65.52-93.56,136-169,175.82-41.36,21.82-89.84,32.6-133.71,49.32-46.3,17.65-91.84,37.61-134.91,62.21-28.37,16.2-56.51,35.29-73.54,63.17-20.93,34.25-22.16,76.55-22.79,116.67-.47,29.89-.61,61.23,13.3,87.69,12.36,23.51,34.38,40.29,56.71,54.65,98,63,212.89,95.58,324.55,124.85,119.21,31.24,240.84,52,362.5,71C873,1121.29,953.66,1133,1034,1146.46c131.46,22,262.72,48.7,395.9,53.85,64.38,2.49,119.06-18.76,139.83-84.71,12-38.23,9.07-79.55,2.59-119.12-24-146.78-93.62-282.18-172.69-408.14-18-28.68-36.94-58-43-91.31-7.63-42.13,3-84.06-10-125.64-12.7-40.66-30.16-78.56-55-113.35A371.4,371.4,0,0,0,1196.82,165.39Z"/><rect class="cls-1" x="1095.67" y="208.26" width="452.38" height="515.87"/></mask><filter id="luminosity-noclip-2" x="937.93" y="418.24" width="306" height="302.43" filterUnits="userSpaceOnUse" color-interpolation-filters="sRGB"><feFlood flood-color="#fff" result="bg"/><feBlend in="SourceGraphic" in2="bg"/></filter><mask id="mask-6" x="937.93" y="418.24" width="306" height="302.43" maskUnits="userSpaceOnUse"><g class="cls-32"><polygon points="1096.88 547.57 995.84 557.55 952.91 428.22 1053.96 418.24 1096.88 547.57"/><polygon class="cls-1" points="1068.27 566.26 1055.08 468.87 937.93 471.07 961.85 585.3 1068.27 566.26"/><rect x="1105.22" y="537.25" width="138.72" height="183.41"/></g></mask><mask id="mask-7" x="927.95" y="447.51" width="277.6" height="225.27" maskUnits="userSpaceOnUse"><path class="cls-1" d="M1185,598.8a71.71,71.71,0,0,0,12.3-31.17c2-14.8.15-29.9-3.34-44.43a206,206,0,0,0-16.4-44.65c-7.57-15-18.14-28.82-36-30.8-10.08-1.11-20.1,1.82-30,4.13-16.3,3.8-33.09,6-49.8,4.92-19.3-1.21-38-6.65-57.3-8.15-18.65-1.45-37.7,1.7-54,11.15-7,4.06-13.59,9.25-17.69,16.23-5.33,9.08-5.9,20.4-3.31,30.61,3,11.75,9.65,22.27,17.16,31.63,8.48,10.57,18.26,20.37,30.17,26.85,18.38,10,39.74,11.27,59.62,16.61,19.07,5.11,37.92,14,52.28,27.79,8,7.7,15.14,17.12,25.51,21.16,7.92,3.08,16.87,2.57,25,.22C1157.79,625.53,1174.25,614.2,1185,598.8Z"/><rect class="cls-1" x="1019.12" y="543.48" width="98.68" height="127.4" transform="translate(-23.28 42.94) rotate(-2.28)"/></mask><mask id="mask-8" x="1081.91" y="418.24" width="299.63" height="909.6" maskUnits="userSpaceOnUse"><path class="cls-1" d="M1328.21,1311.62l24.53-438-241.67-34.35,120.84,184,25.15,298.11S1303.67,1341.06,1328.21,1311.62Z"/><polyline class="cls-1" points="1135.61 1311.62 1111.07 839.31 1352.74 839.31"/><path d="M1171.65,418.24l-60.58,421.07c13.86,40.89,110.15,45.4,241.67,34.35l11-381.53Z"/></mask><filter id="luminosity-noclip-3" x="1107.4" y="402.77" width="243.97" height="128.62" filterUnits="userSpaceOnUse" color-interpolation-filters="sRGB"><feFlood flood-color="#fff" result="bg"/><feBlend in="SourceGraphic" in2="bg"/></filter><mask id="mask-9" x="1107.4" y="402.77" width="243.97" height="128.62" maskUnits="userSpaceOnUse"><g class="cls-31"><rect x="1107.4" y="431.51" width="38.51" height="53.57"/><circle class="cls-1" cx="1170.97" cy="485.08" r="46.31"/></g></mask><filter id="luminosity-noclip-4" x="1147.25" y="218.4" width="153.7" height="156.78" filterUnits="userSpaceOnUse" color-interpolation-filters="sRGB"><feFlood flood-color="#fff" result="bg"/><feBlend in="SourceGraphic" in2="bg"/></filter><mask id="mask-10" x="1147.25" y="218.4" width="153.7" height="156.78" maskUnits="userSpaceOnUse"><g class="cls-30"><path class="cls-1" d="M1259.64,265.11c-28.78-37.6-92.72-12.87-98.1-10.71l-.29.12-.08,0h0a22,22,0,0,0,17.18,40.4,16.14,16.14,0,0,1,16.41,2.08l49.57,39.73s15.23,35.78,27.26,11.88S1289.7,304.37,1259.64,265.11Z"/><polygon points="1300.96 301.89 1184.68 286 1172.18 218.4 1300.96 218.4 1300.96 301.89"/></g></mask></defs><g id="Illustration_1" data-name="Illustration 1"><path class="cls-2" d="M1196.82,165.39c-97.88-65.74-224.61-83.47-339.12-55.33S641.46,210,569.43,303.39c-50.55,65.52-93.56,136-169,175.82-41.36,21.82-89.84,32.6-133.71,49.32-46.3,17.65-91.84,37.61-134.91,62.21-28.37,16.2-56.51,35.29-73.54,63.17-20.93,34.25-22.16,76.55-22.79,116.67-.47,29.89-.61,61.23,13.3,87.69,12.36,23.51,34.38,40.29,56.71,54.65,98,63,212.89,95.58,324.55,124.85,119.21,31.24,240.84,52,362.5,71C873,1121.29,953.66,1133,1034,1146.46c131.46,22,262.72,48.7,395.9,53.85,64.38,2.49,119.06-18.76,139.83-84.71,12-38.23,9.07-79.55,2.59-119.12-24-146.78-93.62-282.18-172.69-408.14-18-28.68-36.94-58-43-91.31-7.63-42.13,3-84.06-10-125.64-12.7-40.66-30.16-78.56-55-113.35A371.4,371.4,0,0,0,1196.82,165.39Z"/><path class="cls-3" d="M687.32,370.38c-1.93,7.8-.7,16,.58,23.93q7.33,45.27,16.64,90.2L733,465.62c4-2.68,8.17-5.44,11.08-9.31,6.62-8.78,5.57-20.86,6.06-31.84.59-12.92,3.72-26,1-38.64C745.65,360.13,696.6,332.86,687.32,370.38Z"/><path class="cls-4" d="M814.57,325.91s13,71.37-8.42,94.12-58.47-2.67-58.47-2.67l23-83.81Z"/><path class="cls-5" d="M765.33,438.17A80.59,80.59,0,0,1,815,487c3.45,9.8,5,20.32,9.86,29.51C829.32,525,836.41,532,840,540.79c4.1,10,3.35,21.39.11,31.67s-8.8,19.63-14.31,28.88c-1.93,3.24-4.09,6.68-7.59,8.09Z"/><polygon class="cls-5" points="694.81 749.56 831.99 749.56 818.06 531.39 694.81 487.89 694.81 749.56"/><path class="cls-4" d="M757.19,489.51l-62.1-14.14c18.41-37.66,26.92-71.83,23.16-101.68l62.1,14.15Z"/><path class="cls-5" d="M705.88,439.09s20.39,19.2,74.69,22,20.18,68.54,20.18,68.54L709.92,510.9l-47.08-28.4Z"/><g class="cls-6"><circle class="cls-4" cx="755.3" cy="336.45" r="60.65"/></g><path class="cls-4" d="M785.21,345.09a15.29,15.29,0,0,1-6.68-.67,28,28,0,0,0-34.29,14.91l-4.3,9.36a43.39,43.39,0,0,0,21.32,57.54l9.37,4.3a28,28,0,0,0,33.37-7.7,15.22,15.22,0,0,0,3.32-11.06l-4.94-52.86a15.36,15.36,0,0,0-17.17-13.82Z"/><path class="cls-3" d="M706.23,304.06c20-38.65,81.81-26.6,87-25.5l.29.06h.07a20.17,20.17,0,0,1-9,39.32,14.83,14.83,0,0,0-14.51,4.53l-38.44,43.93s-8,34.83-22.75,15.14S685.36,344.43,706.23,304.06Z"/><path class="cls-3" d="M770.22,361a30.63,30.63,0,0,1,9.2-2.18,19.61,19.61,0,0,1,4.6.31,35.11,35.11,0,0,0,4.46.46l4.69.2a23.33,23.33,0,0,0,4.73-.13.79.79,0,0,0,.5-1.23,13.61,13.61,0,0,0-3.39-3.5,17.6,17.6,0,0,0-5.19-2.57,14.25,14.25,0,0,0-5.77-.51,43.38,43.38,0,0,0-5.64,1.18,31.47,31.47,0,0,0-5.29,1.91,31,31,0,0,0-4.74,2.88,27.75,27.75,0,0,0-6.58,7,.3.3,0,0,0,.4.42C763.67,364.42,766.67,362.8,770.22,361Z"/><path class="cls-3" d="M819.46,348.41c-.24,1.2-.51,2.39-.82,3.57l-4.2,1.75c-1.53.62-3.11,1.31-5,2l-.57-.46A13.06,13.06,0,0,1,811,349.8a17.5,17.5,0,0,1,4-4.2l0,0A2.82,2.82,0,0,1,819.46,348.41Z"/><path class="cls-7" d="M808.86,355.79c-.13-.09,0-.56,0-.56l.75.14-.18.32S809,355.88,808.86,355.79Z"/><path class="cls-4" d="M705.88,439.09l85,92.3-2.07-57.9a32.32,32.32,0,0,0-30.29-31.11Z"/><path class="cls-3" d="M802.47,306.62l10.67,11.57s0-18.73-6.12-21.42S802.47,306.62,802.47,306.62Z"/><path class="cls-3" d="M711,435.71s-1.42,11.83-14.53,12.76c-.56-4.85-1.36-14.82-2.26-28.93Z"/><path class="cls-5" d="M204.7,109.23c3.63-25.77,17.29-50.95,39.71-64.18a5.51,5.51,0,0,1,2.61-1c1.92,0,3.33,1.75,4.27,3.43,7.62,13.6,5.66,30.74-.07,45.24s-14.81,27.43-21.53,41.5c-7.59,15.89-9.13,32.4-13.82,48.74C201.79,168,202,128.71,204.7,109.23Z"/><path class="cls-5" d="M252.85,187.7c18-18.75,43.86-31.16,69.77-28.75a5.36,5.36,0,0,1,2.68.74c1.59,1.09,1.68,3.37,1.46,5.28-1.79,15.49-13.42,28.22-26.55,36.63s-28.08,13.56-41.77,21C243,231.06,232.07,243.53,218.7,254,216.09,233.61,239.21,201.89,252.85,187.7Z"/><path class="cls-5" d="M158.48,393.2c-22.32-13.39-40.19-35.78-43.63-61.58a5.45,5.45,0,0,1,.12-2.78c.7-1.79,2.91-2.39,4.82-2.6,15.5-1.72,30.51,6.77,41.64,17.69s19.49,24.33,29.83,36c11.68,13.18,26.28,21,39.51,31.72C211.45,418.76,175.35,403.32,158.48,393.2Z"/><path class="cls-5" d="M259.88,417.75c12.19-23,33.62-42,59.2-46.81a5.57,5.57,0,0,1,2.78,0c1.82.61,2.54,2.78,2.85,4.68,2.53,15.38-5.16,30.82-15.48,42.51S286,438.85,274.85,449.79c-12.55,12.35-19.62,27.35-29.6,41.12C237.14,472,250.66,435.13,259.88,417.75Z"/><path class="cls-5" d="M119.5,220.53c-5.27-7.43-10.27-17.64-5-25,3.35-4.64,9.85-6.12,15.45-5s10.5,4.45,15.1,7.85c19,14.06,36.15,31.49,46.28,52.87,4.35,9.18,7.35,18.95,11.57,28.18,4.85,10.62,15.11,21.56,17.6,32.14-15.47,1.66-43.2-27.68-54.6-38.23A339.22,339.22,0,0,1,119.5,220.53Z"/><path class="cls-5" d="M250.36,319c14.71-26.44,34.32-52.72,63-62.37a4.58,4.58,0,0,1,3.14-.26,4.26,4.26,0,0,1,1.85,1.88c8.25,13.35,2.58,31.5-8,43.1s-25,18.72-38,27.61c-18.7,12.82-34,29.53-46,48.68C219.56,369.12,244.45,329.64,250.36,319Z"/><path class="cls-5" d="M318.87,716.79A1071.11,1071.11,0,0,1,216.06,274.14c-.11-8.93-.12-18-.12-26.82,0-33.45,0-68-6.19-101.27l4.92-.91c6.24,33.69,6.26,68.51,6.27,102.18,0,8.78,0,17.85.12,26.75A1066,1066,0,0,0,323.39,714.65Z"/><path class="cls-8" d="M77.69,348.39C58.26,331.08,31.56,320.7,5.91,325.11a5.45,5.45,0,0,0-2.62.94c-1.5,1.21-1.42,3.49-1,5.38,3,15.3,15.57,27.1,29.31,34.47s29,11.35,43.26,17.73c16.06,7.22,27.91,18.81,42.05,28.25C117.89,391.32,92.39,361.47,77.69,348.39Z"/><path class="cls-8" d="M91.71,439.38C65.82,436.74,38.1,444,19.89,462.56a5.45,5.45,0,0,0-1.57,2.3c-.51,1.86.9,3.66,2.3,5C32,480.49,49.11,482.69,64.57,480.61s30.17-7.82,45.45-11c17.24-3.56,33.63-1.1,50.63-1.74C149.43,450.64,111.28,441.38,91.71,439.38Z"/><path class="cls-8" d="M296.57,535.13c8.36-24.65,7.52-53.28-6.53-75.19a5.63,5.63,0,0,0-1.89-2c-1.7-.91-3.77.05-5.36,1.13-12.94,8.71-18.9,24.89-20.33,40.42s.86,31.16.52,46.75c-.38,17.6-6.45,33-9.63,49.74C272.69,588.87,290.24,553.76,296.57,535.13Z"/><path class="cls-8" d="M235.09,619.42c-24.17-9.65-52.81-10.31-75.42,2.57a5.4,5.4,0,0,0-2.14,1.78c-1,1.64-.14,3.76.84,5.41,8,13.37,23.87,20.18,39.3,22.43s31.17.77,46.72,1.93c17.55,1.31,32.64,8.18,49.16,12.23C287.51,646.09,253.36,626.72,235.09,619.42Z"/><path class="cls-8" d="M214.66,378.21c-.79-9.08-3.57-20.11-12.42-22.3-5.55-1.38-11.46,1.7-15,6.2s-5.13,10.19-6.44,15.76c-5.42,23-7.21,47.39-1.11,70.25,2.61,9.82,6.64,19.21,9.39,29,3.16,11.24,2.41,26.22,7.35,35.9,12.88-8.74,15.05-49.05,16.94-64.47A340.12,340.12,0,0,0,214.66,378.21Z"/><path class="cls-8" d="M178.52,538c-28.32-10.65-60.27-18-88.39-6.84a4.54,4.54,0,0,0-2.55,1.83,4.29,4.29,0,0,0-.21,2.63c2.34,15.52,18.41,25.69,34,27.72s31.19-1.9,46.83-3.51c22.55-2.31,45,.55,66.56,7.4C234.4,556.25,189.89,542.23,178.52,538Z"/><path class="cls-8" d="M378.61,887A1066.09,1066.09,0,0,0,171.8,484.72c-5.67-6.86-11.53-13.79-17.2-20.48-21.76-25.7-44.27-52.28-61.29-82l4.33-2.49c16.8,29.34,39.16,55.74,60.77,81.26,5.68,6.71,11.56,13.65,17.24,20.53a1071.22,1071.22,0,0,1,207.8,404.15Z"/><g class="cls-9"><path class="cls-10" d="M682.5,892.14c-2.15,5.9-6,11-10.35,15.59A90.69,90.69,0,0,1,622.7,934.5L620.93,836c0-3.15,50.32,5.22,56.35,10.52C688,855.9,686.86,880.19,682.5,892.14Z"/><path class="cls-10" d="M854.18,850a351.45,351.45,0,0,0,29,35.67,110.62,110.62,0,0,0,13.13-49c.08-2.72,0-5.54-1.11-8a15.59,15.59,0,0,0-3.92-4.82c-14.78-13.17-36.54-13.81-56.33-13.74,9.43,0,5.41,8.49,7,15.7C843.73,834.58,849.05,842.72,854.18,850Z"/></g><g class="cls-11"><polygon class="cls-12" points="575.12 586.98 178.45 759.18 568.05 985.54 1063.27 902.48 1096.2 653.08 575.12 586.98"/></g><g class="cls-13"><polygon class="cls-12" points="686.02 721.38 759.4 799.18 819.72 830.85 1227.35 634.39 1147.5 537.37 931.94 550.88 706.83 647.38 686.02 721.38"/></g><polygon class="cls-14" points="1155.43 631.64 759.4 799.18 759.4 1198.62 1155.43 870.05 1155.43 631.64"/><polygon class="cls-15" points="759.4 1203.62 178.45 1163.62 178.45 759.18 759.4 799.18 759.4 1203.62"/><polygon class="cls-14" points="759.4 1240.43 178.45 1200.43 178.45 795.99 759.4 835.99 759.4 1240.43"/><polygon class="cls-16" points="1155.43 668.38 759.4 836.96 759.4 1240.43 1155.43 906.8 1155.43 668.38"/><g class="cls-17"><circle class="cls-18" cx="1178.59" cy="500.06" r="63.28"/><rect class="cls-18" x="1115.31" y="500.06" width="83.17" height="332.25"/><path class="cls-19" d="M1328.21,1311.62l24.53-438-241.67-34.35,120.84,184,25.15,298.11S1303.67,1341.06,1328.21,1311.62Z"/><path class="cls-19" d="M1135.61,1311.62l-24.54-472.31h241.67l-120.83,184-25.15,298.11S1160.14,1341.06,1135.61,1311.62Z"/><path class="cls-20" d="M1165,438.78c-10.6,15.48-40.33,46.3-40.33,46.3s-10.25,223.29-13.6,354.23c13.86,40.89,110.15,45.4,241.67,34.35l-13-424.79Z"/><path class="cls-21" d="M1094.39,547.81l-97,9.58a2,2,0,0,1-2.1-1.36L953.7,430.6a2,2,0,0,1,1.7-2.63l97-9.58a2,2,0,0,1,2.09,1.36l41.63,125.44A2,2,0,0,1,1094.39,547.81Z"/><g class="cls-22"><g class="cls-23"><path class="cls-24" d="M1193.15,642.17S1114,620,1092.63,611.91s-74-66.45-90-89.5c0,0,7.92-4.07,12.16.67,1.63,1.82,8.59,9.53,16.54,18.31-6.23-14-11.39-26.74-14.41-35.09,0,0,8.7-1.92,11.58,3.74,1.12,2.19,5.91,11.46,11.38,22,1.37-14,3-26.39,4.37-34.55,0,0,8.52,2.6,8.25,8.95-.14,3.36-.78,21.69-1.35,38.21a8.93,8.93,0,0,0,17.82-1,6.43,6.43,0,0,1,.12-1.24c-1.16-10.06-2.07-18-2.35-20.27-1-7.82,9.32-11.87,9.32-11.87,2.21,8.83,5,21.78,7.75,36.55a25.56,25.56,0,0,1,7.56,25.06h0s3.69,17,48.47,17.28,65.63,1.72,65.63,1.72Z"/></g></g><g class="cls-25"><path class="cls-26" d="M1314.55,910.36c2.34,6.42,6.57,12,11.26,17a98.7,98.7,0,0,0,53.81,29.14l1.92-107.21c.07-3.43-54.75,5.67-61.31,11.45C1308.61,870.93,1309.8,897.36,1314.55,910.36Z"/><path class="cls-26" d="M1127.73,864.46a382.23,382.23,0,0,1-31.5,38.82A120.4,120.4,0,0,1,1081.94,850c-.09-3,0-6,1.21-8.72a16.74,16.74,0,0,1,4.27-5.25c16.08-14.33,39.76-15,61.29-15-10.26,0-5.89,9.24-7.56,17.09C1139.1,847.72,1133.31,856.58,1127.73,864.46Z"/></g><circle class="cls-20" cx="1170.97" cy="485.08" r="46.31"/><g class="cls-27"><path class="cls-20" d="M1134.42,454.89c45.71-39.28,138.65-52.12,138.65-52.12L1351.38,452Z"/></g><path class="cls-24" d="M1224.25,480.37l80-33.87c-29.35-35.79-45.17-70.7-44.22-104.5l-80,33.87Z"/><path class="cls-20" d="M1289.11,417.36s-22.19,20.9-81.28,23.89-22,74.59-22,74.59l98.84-20.34,51.23-30.9Z"/><path class="cls-18" d="M1351.38,453.72s100.1,44.32-38.68,251.09L1263.79,638l21.54-150.11Z"/><path class="cls-18" d="M1312.7,704.81l-231.49-96.39,13.65-41.52s127.23,11.24,181.83,61.29S1312.7,704.81,1312.7,704.81Z"/><circle class="cls-18" cx="1331.97" cy="495.5" r="47.26"/><g class="cls-28"><circle class="cls-24" cx="1213.25" cy="309.18" r="66"/></g><rect class="cls-24" x="1155.22" y="322.56" width="52.64" height="52.64"/><path class="cls-24" d="M1182.86,324.14a16.59,16.59,0,0,0,7-2,30.5,30.5,0,0,1,39.59,9.41l6.39,9.22A47.2,47.2,0,0,1,1224,406.5l-9.22,6.39a30.49,30.49,0,0,1-37.22-1.87,16.62,16.62,0,0,1-5.67-11.22l-4.8-57.57a16.72,16.72,0,0,1,15.76-18.09Z"/><path class="cls-7" d="M1259.64,265.11c-28.78-37.6-92.72-12.87-98.1-10.71l-.29.12-.08,0h0a22,22,0,0,0,17.18,40.4,16.14,16.14,0,0,1,16.41,2.08l49.57,39.73s15.23,35.78,27.26,11.88S1289.7,304.37,1259.64,265.11Z"/><polyline class="cls-7" points="1244.3 330.57 1234.83 321.78 1231.91 332.11"/><path class="cls-7" d="M1164.31,400.9a31.82,31.82,0,0,0,5.41,9.07,28,28,0,0,0,18.56,9.18,27.22,27.22,0,0,0,13.27-2.2l15.4-6.73,13.34-6a23.28,23.28,0,0,0,14.43-21.54,23,23,0,0,0-1.36-7.81l.94-65.74-14.83,9.29v9.14a4.49,4.49,0,0,0,.41,1.84,42.73,42.73,0,0,1,1.48,32.26c-.3.83-.63,1.66-1,2.47-.09.2-.19.39-.28.59a42.71,42.71,0,0,1-24.45,22.7,17.74,17.74,0,0,1-1.92-1.72c-.69-.57-1.39-1.12-2.12-1.64a37.1,37.1,0,0,0-14.93-6.34,38.43,38.43,0,0,0-12.48-.19,16.58,16.58,0,0,0-6.52,2.26,12.56,12.56,0,0,0-5.45,7.81c-.81,3.68,0,7.55,1.25,11.05C1163.74,399.44,1164,400.17,1164.31,400.9Z"/><path class="cls-7" d="M1201.94,338.28a28.67,28.67,0,0,0-5.17-.7,29.9,29.9,0,0,0-5.1.11,21,21,0,0,0-4.86,1.22,41,41,0,0,1-4.69,1.34l-5,1.11a25.74,25.74,0,0,1-5.08.76.87.87,0,0,1-.78-1.22,14.65,14.65,0,0,1,3-4.4,18.88,18.88,0,0,1,5.07-3.74,15.4,15.4,0,0,1,6.08-1.65,48.13,48.13,0,0,1,6.26.18,35.82,35.82,0,0,1,6,1,33.31,33.31,0,0,1,5.63,2.18,29.92,29.92,0,0,1,8.39,6.27.32.32,0,0,1-.34.52C1209.62,340.74,1206.1,339.58,1201.94,338.28Z"/><path class="cls-7" d="M1146.79,334.24c.49,1.24,1,2.46,1.57,3.66l4.84,1.08c1.75.38,3.57.81,5.71,1.14l.52-.6a14.06,14.06,0,0,0-3.34-5.4,19,19,0,0,0-5.07-3.74l0,0A3.08,3.08,0,0,0,1146.79,334.24Z"/><path class="cls-24" d="M1178.59,384.55a47.56,47.56,0,0,1,4.78.33,37,37,0,0,1,5.91,1.06c3.12.86,7.52,2.65,7.26,6.57-.18,2.84-2.39,5.35-4.27,7.28-2.55,2.61-5.66,5-9.26,5.9-7.54,1.82-12.77-5.2-14.75-11.55a26.78,26.78,0,0,1-.77-3.21,4.6,4.6,0,0,1,0-1.81,3.65,3.65,0,0,1,1.64-2.07,14.42,14.42,0,0,1,5.5-2.21A21.42,21.42,0,0,1,1178.59,384.55Z"/><path class="cls-7" d="M1157,286.23l-9.23,14.42s-3.62-20.06,2.47-24.11S1157,286.23,1157,286.23Z"/><path class="cls-7" d="M1159.56,340.12c.12-.12-.13-.6-.13-.6l-.77.3.25.3S1159.44,340.24,1159.56,340.12Z"/></g><circle class="cls-8" cx="685.25" cy="517.57" r="41.2"/><polygon class="cls-4" points="779.94 627.41 888.11 654.81 878.41 688.58 764.19 677.27 761.45 641.42 779.94 627.41"/><path class="cls-8" d="M706.17,657l58,20.3s3.14-36.78,28-48.17l-81.31-37.25-1.62-68.43-24,52.27Z"/><polygon class="cls-8" points="706.17 656.97 645.95 529.98 676.06 492.99 720.55 517.57 749.67 631.85 706.17 656.97"/><circle class="cls-4" cx="932" cy="693.59" r="7.79"/><circle class="cls-4" cx="939.79" cy="685.57" r="7.79"/><circle class="cls-4" cx="947.59" cy="677.27" r="7.79"/><circle class="cls-4" cx="957.18" cy="668.97" r="7.79"/><path class="cls-4" d="M963.07,663.87l-19.14-18-24.11-.94a32.42,32.42,0,0,0-13.59,2.41l-18.12,7.48-16.27,20,6.57,13.74,52.79,12.77Z"/><polygon class="cls-29" points="662.56 665.78 333.56 641.65 334.16 463.07 663.16 487.2 662.56 665.78"/><polygon class="cls-29" points="525.41 742.26 470.12 738.21 470.54 615.61 525.82 619.66 525.41 742.26"/><polygon class="cls-29" points="572.58 751.93 422.91 740.95 422.97 724.55 572.64 735.52 572.58 751.93"/><ellipse class="cls-19" cx="498.36" cy="564.43" rx="20.72" ry="22.23" transform="translate(-249.37 475.93) rotate(-41.81)"/><polyline class="cls-5" points="356.45 676.41 246.83 676.41 268.75 749.74 334.53 749.74 356.45 676.41"/></g></svg>