<svg xmlns="http://www.w3.org/2000/svg" xmlns:xlink="http://www.w3.org/1999/xlink" viewBox="0 0 1600 1400"><defs><style>.cls-1{fill:#fff;}.cls-2{filter:url(#luminosity-noclip-2);}.cls-3{fill:#dde4e0;}.cls-4{mask:url(#mask);}.cls-5{fill:#b4c8cc;}.cls-6{fill:#97b2b5;}.cls-7{mask:url(#mask-2);}.cls-8{fill:#7a8893;}.cls-9{fill:#e8ebed;}.cls-10,.cls-15{fill:none;}.cls-10,.cls-11{stroke:#6a9195;stroke-width:5px;}.cls-10,.cls-11,.cls-15{stroke-miterlimit:10;}.cls-11,.cls-12{fill:#6a9195;}.cls-13{fill:#465d6d;}.cls-14{fill:#344d5e;}.cls-15{stroke:#223d50;stroke-linecap:round;stroke-width:10px;}.cls-16{mask:url(#mask-3);}.cls-17{fill:#6a7c89;}.cls-18{fill:#8e9ca6;}.cls-19{fill:#835e4d;}.cls-20{fill:#2a6285;}.cls-21{fill:#1e0b04;}.cls-22{fill:#3278a4;}.cls-23{mask:url(#mask-4);}.cls-24{mask:url(#mask-5);}.cls-25{fill:#223d50;}.cls-26{filter:url(#luminosity-noclip);}</style><mask id="mask" x="1025.78" y="39.44" width="593.33" height="804.23" maskUnits="userSpaceOnUse"><rect class="cls-1" x="1025.78" y="39.44" width="593.33" height="654.44"/></mask><mask id="mask-2" x="96.51" y="44.84" width="1406.99" height="1316.44" maskUnits="userSpaceOnUse"><path class="cls-1" d="M548.87,52.32C433.39,76.15,332,154.2,271.88,255.64S191.8,480,208,596.81c11.36,82,31.58,162.06,7.16,243.76-13.39,44.81-39.65,87-58.44,130-19.83,45.41-37.48,91.89-50.08,139.87-8.3,31.6-14.38,65-6.41,96.74,9.79,38.91,39.13,69.42,67.33,98,21,21.27,43.28,43.31,71.91,51.92,25.43,7.64,52.83,3.67,78.72-2.21,113.59-25.82,217.32-85,316.41-144.24,105.79-63.21,205.78-135.5,304.52-209,65.34-48.67,130.18-98,196-145.95,107.75-78.45,218.75-153.42,315.7-244.89,46.86-44.2,70-98.12,37.46-159.13-18.86-35.38-50.44-62.19-83.22-85.28-121.59-85.64-267-130.78-412.28-162.56-33.08-7.23-67.27-14.24-95.27-33.26-35.42-24.06-57.9-61-96.67-80.88C763,70.19,723.68,56.12,681.48,49.46A371.5,371.5,0,0,0,548.87,52.32Z"/></mask><mask id="mask-3" x="96.51" y="44.84" width="1406.99" height="1316.44" maskUnits="userSpaceOnUse"><path class="cls-1" d="M548.87,52.32C433.39,76.15,332,154.2,271.88,255.64S191.8,480,208,596.81c11.36,82,31.58,162.06,7.16,243.76-13.39,44.81-39.65,87-58.44,130-19.83,45.41-37.48,91.89-50.08,139.87-8.3,31.6-14.38,65-6.41,96.74,9.79,38.91,39.13,69.42,67.33,98,21,21.27,43.28,43.31,71.91,51.92,25.43,7.64,52.83,3.67,78.72-2.21,113.59-25.82,217.32-85,316.41-144.24,105.79-63.21,205.78-135.5,304.52-209,65.34-48.67,130.18-98,196-145.95,107.75-78.45,218.75-153.42,315.7-244.89,46.86-44.2,70-98.12,37.46-159.13-18.86-35.38-50.44-62.19-83.22-85.28-121.59-85.64-267-130.78-412.28-162.56-33.08-7.23-67.27-14.24-95.27-33.26-35.42-24.06-57.9-61-96.67-80.88C763,70.19,723.68,56.12,681.48,49.46A371.5,371.5,0,0,0,548.87,52.32Z"/><rect class="cls-1" x="935.02" y="766.25" width="278.09" height="293.16"/></mask><filter id="luminosity-noclip" x="938.97" y="265.78" width="152.09" height="155.14" filterUnits="userSpaceOnUse" color-interpolation-filters="sRGB"><feFlood flood-color="#fff" result="bg"/><feBlend in="SourceGraphic" in2="bg"/></filter><mask id="mask-4" x="938.97" y="265.78" width="152.09" height="155.14" maskUnits="userSpaceOnUse"><g class="cls-26"><path class="cls-1" d="M1050.17,312c-28.48-37.2-91.75-12.74-97.07-10.6l-.29.12-.08,0h0a21.72,21.72,0,0,0,17,40A16,16,0,0,1,986,343.6l49,39.31s15.07,35.41,27,11.75S1079.92,350.85,1050.17,312Z"/><polygon points="1091.06 348.39 976 332.67 963.63 265.78 1091.06 265.78 1091.06 348.39"/></g></mask><filter id="luminosity-noclip-2" x="745.34" y="692.49" width="395.11" height="568.77" filterUnits="userSpaceOnUse" color-interpolation-filters="sRGB"><feFlood flood-color="#fff" result="bg"/><feBlend in="SourceGraphic" in2="bg"/></filter><mask id="mask-5" x="745.34" y="692.49" width="395.11" height="568.77" maskUnits="userSpaceOnUse"><path class="cls-2" d="M891,1190.19c27.41-126.6-30-201.36-30-201.36s255-25,274.75-92-29.69-142.44-29.69-142.44L761.58,932.25a30,30,0,0,0-13.56,39l131.51,290Z"/></mask></defs><g id="Illustration_2" data-name="Illustration 2"><path class="cls-3" d="M548.87,52.32C433.39,76.15,332,154.2,271.88,255.64S191.8,480,208,596.81c11.36,82,31.58,162.06,7.16,243.76-13.39,44.81-39.65,87-58.44,130-19.83,45.41-37.48,91.89-50.08,139.87-8.3,31.6-14.38,65-6.41,96.74,9.79,38.91,39.13,69.42,67.33,98,21,21.27,43.28,43.31,71.91,51.92,25.43,7.64,52.83,3.67,78.72-2.21,113.59-25.82,217.32-85,316.41-144.24,105.79-63.21,205.78-135.5,304.52-209,65.34-48.67,130.18-98,196-145.95,107.75-78.45,218.75-153.42,315.7-244.89,46.86-44.2,70-98.12,37.46-159.13-18.86-35.38-50.44-62.19-83.22-85.28-121.59-85.64-267-130.78-412.28-162.56-33.08-7.23-67.27-14.24-95.27-33.26-35.42-24.06-57.9-61-96.67-80.88C763,70.19,723.68,56.12,681.48,49.46A371.5,371.5,0,0,0,548.87,52.32Z"/><g class="cls-4"><path class="cls-5" d="M1296.58,170c-5.56-25.42-21.08-49.51-44.42-61a5.64,5.64,0,0,0-2.68-.77c-1.92.1-3.19,2-4,3.73-6.58,14.14-3.33,31.08,3.46,45.12s16.84,26.24,24.59,39.76c8.76,15.27,11.54,31.62,17.44,47.57C1303.88,228.34,1300.78,189.2,1296.58,170Z"/><path class="cls-5" d="M1254.46,251.85c-19.4-17.35-46.08-27.78-71.74-23.43a5.6,5.6,0,0,0-2.62.94c-1.5,1.2-1.42,3.49-1.06,5.37,3,15.32,15.51,27.14,29.24,34.54s29,11.41,43.22,17.83c16,7.24,27.87,18.86,42,28.33C1294.56,294.87,1269.12,265,1254.46,251.85Z"/><path class="cls-5" d="M1364,449.68c21.25-15,37.38-38.7,38.88-64.68a5.58,5.58,0,0,0-.33-2.76c-.84-1.73-3.08-2.17-5-2.24-15.59-.54-29.92,9.05-40.2,20.77s-17.6,25.73-27,38.14c-10.65,14-24.62,22.95-37,34.6C1313.1,479.15,1347.93,461,1364,449.68Z"/><path class="cls-5" d="M1264.73,481.78c-13.89-22-36.68-39.37-62.55-42.23a5.67,5.67,0,0,0-2.78.18c-1.77.75-2.32,3-2.49,4.88-1.36,15.54,7.46,30.36,18.63,41.24s24.76,18.93,36.67,29c13.44,11.38,21.62,25.8,32.6,38.78C1291.48,534.15,1275.23,498.42,1264.73,481.78Z"/><path class="cls-5" d="M1389.89,274.57c4.7-7.8,8.92-18.36,3.06-25.33-3.68-4.38-10.28-5.36-15.78-3.79s-10.13,5.23-14.46,9c-17.93,15.45-33.68,34.11-42.18,56.2-3.65,9.48-5.91,19.44-9.42,29-4,11-13.45,22.62-15.14,33.36,15.55.49,41-30.85,51.58-42.22A339.07,339.07,0,0,0,1389.89,274.57Z"/><path class="cls-5" d="M1266.81,382.62c-16.66-25.26-38.19-50-67.51-57.46a4.55,4.55,0,0,0-3.15,0,4.31,4.31,0,0,0-1.7,2c-7.23,13.93-.2,31.6,11.2,42.38s26.36,16.79,40,24.68c19.61,11.37,36.11,26.88,49.52,45.09C1301.28,430.25,1273.5,392.76,1266.81,382.62Z"/><path class="cls-5" d="M1228.37,784.41a1071.08,1071.08,0,0,0,69.26-449.13c-.56-8.92-1.23-18-1.89-26.75-2.5-33.35-5.08-67.84-1.44-101.45l-5-.54c-3.69,34.06-1.09,68.78,1.42,102.36.66,8.76,1.34,17.81,1.89,26.69a1066,1066,0,0,1-68.94,447Z"/><path class="cls-6" d="M1505.22,305.09c19.44-17.3,46.14-27.68,71.79-23.28a5.57,5.57,0,0,1,2.62.95c1.5,1.21,1.42,3.49,1,5.38-3,15.3-15.57,27.1-29.31,34.47s-29,11.34-43.26,17.73c-16.06,7.21-27.91,18.81-42,28.25C1465,348,1490.53,318.18,1505.22,305.09Z"/><path class="cls-6" d="M1491.21,396.09c25.89-2.65,53.61,4.59,71.82,23.18a5.45,5.45,0,0,1,1.57,2.3c.51,1.85-.9,3.66-2.3,5-11.38,10.66-28.49,12.85-44,10.77s-30.17-7.81-45.45-11c-17.24-3.56-33.63-1.1-50.63-1.74C1433.49,407.34,1471.64,398.09,1491.21,396.09Z"/><path class="cls-6" d="M1286.35,491.83c-8.37-24.64-7.52-53.28,6.53-75.18a5.63,5.63,0,0,1,1.89-2c1.7-.91,3.77.05,5.36,1.13,12.94,8.71,18.9,24.89,20.33,40.42s-.86,31.16-.52,46.75c.38,17.6,6.45,33,9.63,49.74C1310.23,545.58,1292.68,510.46,1286.35,491.83Z"/><path class="cls-6" d="M1347.83,576.13c24.17-9.66,52.81-10.31,75.42,2.57a5.4,5.4,0,0,1,2.14,1.78c1,1.64.14,3.76-.85,5.41-8,13.37-23.86,20.18-39.3,22.42s-31.16.78-46.71,1.94c-17.55,1.31-32.65,8.17-49.16,12.23C1295.41,602.8,1329.56,583.42,1347.83,576.13Z"/><path class="cls-6" d="M1368.26,334.91c.79-9.07,3.57-20.1,12.42-22.29,5.55-1.38,11.46,1.7,15,6.2s5.12,10.19,6.44,15.75c5.42,23,7.21,47.4,1.11,70.26-2.61,9.82-6.64,19.2-9.39,29-3.16,11.24-2.41,26.21-7.35,35.9-12.88-8.75-15-49.06-16.94-64.47A339.52,339.52,0,0,1,1368.26,334.91Z"/><path class="cls-6" d="M1404.4,494.66c28.32-10.65,60.27-18,88.39-6.85a4.6,4.6,0,0,1,2.55,1.84,4.27,4.27,0,0,1,.2,2.63c-2.33,15.51-18.4,25.69-34,27.72s-31.19-1.91-46.83-3.51c-22.55-2.31-45,.55-66.56,7.4C1348.52,513,1393,498.93,1404.4,494.66Z"/><path class="cls-6" d="M1204.31,843.67a1065.87,1065.87,0,0,1,206.81-402.24c5.67-6.87,11.53-13.79,17.2-20.49,21.76-25.69,44.27-52.27,61.29-82l-4.34-2.48c-16.79,29.34-39.15,55.74-60.76,81.26-5.68,6.71-11.56,13.65-17.24,20.53a1071.22,1071.22,0,0,0-207.8,404.15Z"/></g><g class="cls-7"><rect class="cls-8" x="495.85" y="777.86" width="22.22" height="537.62"/></g><rect class="cls-8" x="640.14" y="573.6" width="74.69" height="164.79"/><rect class="cls-8" x="576.38" y="724.67" width="202.2" height="22.05"/><rect class="cls-8" x="455.24" y="382.07" width="444.48" height="240.02"/><rect class="cls-1" x="571.16" y="293.52" width="212.65" height="417.11" transform="translate(1179.56 -175.41) rotate(90)"/><rect class="cls-9" x="493.93" y="439.41" width="80.39" height="79.41"/><path class="cls-1" d="M569.32,444.41v69.41H498.93V444.41h70.39m10-10H488.93v89.41h90.39V434.41Z"/><rect class="cls-9" x="780.65" y="439.41" width="80.39" height="79.41"/><path class="cls-1" d="M856,444.41v69.41H785.65V444.41H856m10-10H775.65v89.41H866V434.41Z"/><rect class="cls-9" x="493.93" y="511.85" width="367.11" height="71.56"/><path class="cls-1" d="M856,516.85v61.56H498.93V516.85H856m10-10H488.93v81.56H866V506.85Z"/><path class="cls-10" d="M644.58,531s1.22,13.29,11.95,13.29H714.8"/><polyline class="cls-10" points="633.53 476.27 629.95 459.91 617.17 459.91"/><polygon class="cls-11" points="737.8 476.27 633.53 476.27 644.58 530.96 724.34 530.96 737.8 476.27"/><rect class="cls-9" x="493.93" y="420.75" width="367.11" height="22.64"/><path class="cls-1" d="M856,425.75v12.64H498.93V425.75H856m10-10H488.93v32.64H866V415.75Z"/><rect class="cls-12" x="321.3" y="746.45" width="978.16" height="39.86"/><path class="cls-3" d="M1398.94,1270.23c-2.5-4.74-6.91-8.39-11.4-11.45-29.64-20.24-67-24-101.88-25.79-20.82-1-41.69-1.13-62.53-.52-20.42.61-42.15,4.85-62.45,3.71-34.34-1.93-71.32-3-109.88-3-53.1,0-106.27,1.84-159.18,6.52-47.94,4.23-95.77,7.73-141.42,24.18-10.31,3.71-20.44,9.7-25.66,19.34-4.08,7.55-4.69,16.56-3.53,25.07a66.16,66.16,0,0,0,16.78,35.6c11.63,12.61,27.86,20.23,44.53,24.27,54,13.09,110.6.81,165-1.8,89-4.26,177,15.58,266,12.34,63.27-2.31,163.39-16.58,185.81-88.26,1.78-5.69,2.87-11.92.95-17.56A17.94,17.94,0,0,0,1398.94,1270.23Z"/><rect class="cls-13" x="1054.39" y="916.45" width="15.05" height="319.46"/><rect class="cls-13" x="1045.74" y="1188.92" width="32.35" height="70.1"/><path class="cls-13" d="M1049.74,1215.11l-164.27,43.71a7.22,7.22,0,0,0-5.49,7c.09,3,2.21,5.87,10.3,5.49,16.18-.78,87.05-20,161.77-18.49Z"/><path class="cls-13" d="M1074.09,1215.11l164.28,43.71a7.23,7.23,0,0,1,5.49,7c-.1,3-2.22,5.87-10.31,5.49-16.17-.78-87-20-161.77-18.49Z"/><circle class="cls-13" cx="897.31" cy="1288.18" r="17.33"/><circle class="cls-13" cx="1226.53" cy="1288.18" r="17.33"/><path class="cls-14" d="M795.63,1002.75c7.54-13.63,22-22.35,37-26.43s30.83-4.11,46.41-4.16c52.75-.19,105.63-1.06,158.11-6.88,41.28-4.57,104.15-6.21,132.08-42,45.41-58.23-5.59-109.32-13.86-156.57s23.78-211.81,23.78-211.81L1073.79,571s-20.73,106.46-15.39,137,38.35,63.61,9,101.28c-18.07,23.17-58.74,24.23-85.44,27.19-33.95,3.76-68.16,4.32-102.28,4.44-10.08,0-20.3.05-30,2.7s-19.08,8.28-24,17.1Z"/><path class="cls-15" d="M1179.18,554.88s-32,164.56-23.78,211.81,59.27,98.34,13.86,156.57c-27.93,35.81-90.8,37.45-132.08,42-52.48,5.82-105.36,6.69-158.11,6.88-15.58.05-31.38.07-46.41,4.16s-29.49,12.8-37,26.43"/><path class="cls-15" d="M1073.79,571s-20.73,106.46-15.39,137,38.35,63.61,9,101.28c-18.07,23.17-58.74,24.23-85.44,27.19-33.95,3.76-68.16,4.32-102.28,4.44-10.08,0-20.3.05-30,2.7s-19.08,8.28-24,17.1"/><g class="cls-16"><path class="cls-17" d="M800.57,1154.05c38.09-123.81-12.7-203.18-12.7-203.18s256.19-3.17,281.59-68.25S1052,738.18,1052,738.18L693.6,886a30,30,0,0,0-16.84,37.75l106.35,300.11Z"/><path class="cls-18" d="M837.08,1169.92c38.09-123.81-12.7-203.17-12.7-203.17s256.19-3.18,281.59-68.26-17.46-144.44-17.46-144.44L730.1,901.9a30,30,0,0,0-16.83,37.76l106.35,300.1Z"/></g><path class="cls-19" d="M902.87,621.63s-78.38,12.81-99.82,18.3-78.25,55.93-96,76.37c0,0,7.18,4.76,11.76.66,1.76-1.58,9.28-8.24,17.85-15.82-7.48,12.75-13.81,24.47-17.61,32.17,0,0,8.16,2.77,11.54-2.36,1.3-2,6.91-10.38,13.29-19.93-.18,13.58.06,25.68.49,33.67,0,0,8.47-1.58,8.9-7.71.22-3.25,1.57-20.94,2.79-36.87A8.63,8.63,0,0,1,773,703a6.89,6.89,0,0,0,0,1.2c-2.19,9.55-3.92,17.06-4.43,19.23-1.75,7.41,7.69,12.4,7.69,12.4,3.07-8.24,7.14-20.38,11.36-34.29a24.69,24.69,0,0,0,10-23.26h0s5.37-16,48.42-11.41,63.25,5.37,63.25,5.37Z"/><circle class="cls-20" cx="1012.27" cy="516.15" r="44.37"/><path class="cls-20" d="M972.7,662.69l-64.57,14.57s1.18-39.74-24-55l91.57-29.83,10.17-73,19.22,58.86Z"/><polygon class="cls-20" points="972.7 662.69 1052.78 534.27 1025.13 490.99 974.5 511.8 929.27 630.46 972.7 662.69"/><path class="cls-21" d="M1082.65,378.78c.59,1.32,2.24,2.31,2.66,3.68s-.26,3.1,0,4.51,1.26,2.75,1.43,4.19-1.68,3-1.59,4.48,1,2.81,1.09,4.25,1.44,2.86,1.46,4.3-.12,3-.1,4.49-1.94,3-1.92,4.52,1.29,3,1.31,4.47-1.23,3-1.22,4.5.41,3,.42,4.49.64,3,.65,4.48-.67,3-.67,4.49,1.83,3,1.83,4.49.2,3,.19,4.5-.65,3-.66,4.49-1.6,3-1.61,4.48.59,3,.58,4.49.18,3,.17,4.49.67,3,.65,4.5-1.12,3-1.15,4.47.54,3,.52,4.5.72,3,.69,4.51.34,3,.31,4.49-1.12,3-1.16,4.47-.39,3-.43,4.48-.61,3-.65,4.48,1.12,3.84,1.08,5.33c-1.4-.61-2.85-3.12-4.26-3.73s-3.18-.35-4.59-1-2.73-1.4-4.14-2-2.74-1.39-4.14-2-3.09-.6-4.49-1.21-2.43-2.11-3.84-2.72-3.23-.26-4.63-.87-2.75-1.36-4.16-2c-1.59-.69-2.84-2.13-4.41-2.88s-3.84-.25-5.31-1.17-1.82-3.28-3.1-4.48c-1.1-1-3.8-.61-4.68-1.78s-.17-3.46-.87-4.77-2.13-2.25-2.67-3.64-.44-3-.86-4.4,0-3-.31-4.48-1.64-2.65-1.94-4.1-1.27-2.76-1.56-4.21,1.08-3.27.76-4.7-2.38-2.61-2.78-4.11-1-2.91-1.44-4.4-.23-3.15-.65-4.64-1.49-2.8-1.9-4.3,0-3.2-.41-4.7-.29-3.11-.59-4.62-.44-3.05-.65-4.58-.27-3-.36-4.59.62-3,.67-4.57-1.1-3-.81-4.55,1.39-2.69,1.87-4.16-.85-3.57-.23-5,2.59-2.12,3.34-3.46,2.3-2.07,3.15-3.34-.08-3.78.86-5,2.19-2.2,3.21-3.32,3.59-.71,4.68-1.75.81-3.63,2-4.59,3.64-.2,4.87-1.05,2.11-2.21,3.41-2.95a41,41,0,0,1,4-1.9c1.42-.62,2.58-1.7,4-2.12s3.08.15,4.55-.05,2.92-1.88,4.41-1.81,3.31-.31,4.77.08,2,3.13,3.35,3.86,3.28.3,4.48,1.32,1.08,3,2.08,4.2,3.34,1.24,4.15,2.61S1082,377.32,1082.65,378.78Z"/><path class="cls-19" d="M939.45,355.62s-.29,78.12,26.71,98.2,61.48-13.88,61.48-13.88l-40.26-84.5Z"/><path class="cls-22" d="M1015.32,461.66a86.79,86.79,0,0,0-53.47,52.61c-3.72,10.55-5.4,21.88-10.62,31.78-4.81,9.1-12.45,16.6-16.36,26.12-4.42,10.73-3.61,23-.12,34.1s9.48,21.14,15.42,31.1c2.07,3.49,4.4,7.19,8.16,8.71Z"/><polygon class="cls-22" points="1100.15 780.09 943.63 804.39 958.54 562.05 1091.26 515.21 1100.15 780.09"/><path class="cls-19" d="M1031.18,518.22l52.42-49.31c-26.63-36.45-31.36-48.47-33-80.82l-63.16,26.73Z"/><path class="cls-22" d="M1079.34,462.66s-22,20.68-80.44,23.64-21.72,73.81-21.72,73.81L1075,540l60-21.75Z"/><g class="cls-23"><circle class="cls-19" cx="1004.28" cy="355.61" r="65.31"/></g><path class="cls-19" d="M974.2,370.41a16.44,16.44,0,0,0,6.95-2,30.18,30.18,0,0,1,39.17,9.32l6.33,9.11a46.73,46.73,0,0,1-11.73,65l-9.12,6.33A30.19,30.19,0,0,1,969,456.38a16.41,16.41,0,0,1-5.6-11.1l-4.76-57a16.56,16.56,0,0,1,15.6-17.9Z"/><path class="cls-21" d="M1050.22,312c-.94-1.22-2.79-1.58-3.8-2.67s-1.2-3.06-2.31-4.06-3.18-.82-4.39-1.71-2.16-2.06-3.45-2.84-2.47-1.66-3.83-2.32-2.26-2.39-3.67-2.93-3.3.3-4.75-.13-2.9-.61-4.38-.94-2.91-.55-4.4-.79-2.75-2.37-4.26-2.51-3.07-.21-4.58-.28-3.06,1.94-4.57,2-3.06-1.43-4.56-1.36-3,.68-4.51.81-3,.45-4.49.64-3,.17-4.52.41-3.22-.56-4.68-.28-2.74,1.92-4.18,2.24-3.41-.94-4.82-.57-2.57,2.44-4,2.83c-1.57.45-3.43-.42-4.76,0-1.64.52-2.42,3-3.65,3.4-2.14.75-3.76.8-4.4,1.06-.1,0-.88-1.58-1-1.54s.12.62.09.64l-.13-.49c-1.36.59-1.55,3.27-2.75,4.11S946,305,945,306s-1.12,2.93-1.89,4.18-.67,2.79-1.18,4.19-2.08,2.41-2.29,3.88a22.37,22.37,0,0,0,.24,4.44c.08,1.49-.73,3.19-.35,4.59s2,2.48,2.65,3.78.88,3,1.79,4.12a23.31,23.31,0,0,0,3.13,3.23c1.12.95,2.12,2.38,3.42,3.09a24.5,24.5,0,0,0,4.32,1.59,23.16,23.16,0,0,0,4.52.71c1.81.16,3.64-.57,5.34-.83s4,.38,5.56-.29c1.34-.56,2.2-2.39,3.6-2.6s2.86.45,4.27.61,3.16-.56,4.49,0a16.9,16.9,0,0,1,3.54,2.69c1.75,1.4,1.61,1.59,3.35,3s1.11,2.21,2.86,3.61,2.9,0,4.65,1.36.65,2.78,2.41,4.19,2.07,1,3.82,2.4,2.08,1,3.83,2.4,2.47.5,4.23,1.91.55,2.9,2.3,4.3,2.42.57,4.17,2,.9,2.46,2.65,3.87,3-.19,4.78,1.21.69,2.74,2.44,4.14,1.9,1.23,3.66,2.64,2.93.19,4.47,1.83.33,2.19,1.58,4.58c.62,1.18,1.15,2.63,2,4,.76,1.24,1.67,2.45,2.57,3.7s.8,3.38,1.8,4.45,2.84,1.75,4,2.54a9.52,9.52,0,0,0,4.44,1.14c1.42.13,3.13.34,4.56-.57,1.08-.69,1.72-2.28,2.78-3.7.79-1.06,1-2.58,1.79-4.11.68-1.36,2.83-2,3.46-3.31s-.26-3.43.34-4.79,2.29-2.3,2.82-3.68.1-3.15.55-4.57,2.33-2.47,2.69-3.92-1-3.24-.72-4.73,1.1-2.84,1.2-4.35-.45-2.94-.49-4.46.86-3,.68-4.54-1.34-2.77-1.65-4.28-1.35-2.63-1.78-4.11,1.6-3.62,1.07-5.08-2.61-2.16-3.23-3.57-.39-3.07-1.08-4.46-1.15-2.75-1.9-4.1-1.22-2.75-2-4.07-3.47-1.3-4.31-2.59.29-3.75-.58-5-2.89-1.59-3.8-2.83S1051.15,313.18,1050.22,312Z"/><path class="cls-19" d="M1079.34,462.66l-75,81.41a9,9,0,0,1-15.69-6.45L990,499.7a34.82,34.82,0,0,1,32.62-33.5Z"/><g class="cls-24"><path class="cls-19" d="M972.53,809.13c2.56-5.83,37.38-2.15,34.85-8.54a24.72,24.72,0,0,0-3.48-6.08h0S1000.52,778,1040,760.24,1097.34,733,1097.34,733l-31.06-40.52s-61.25,50.57-77,66.12-73.9,77.25-79,103.87c0,0,8.6.49,10.48-5.35"/><path class="cls-19" d="M911.42,861.41c8,3,16.93-.72,23.64-5.94s12.23-12,19.47-16.39c8.21-5,23.64-18.45,32.76-21.52s18.43-8.29,22.07-17.21c5.85-14.28-10.48-21.08-1.21-33.43-1.86-1-4.08.29-5.78,1.54l-33.29,24.48Z"/></g><circle class="cls-20" cx="1101.36" cy="547.07" r="44.37"/><path class="cls-20" d="M1146.85,692l-48.19,45.37s-19.2-34.81-48.61-35.15L1113.74,630l-28.37-68,46.48,40.91Z"/><polygon class="cls-20" points="1146.99 691.84 1145.24 540.5 1098.63 518.94 1067.2 563.75 1093.03 688.09 1146.99 691.84"/><rect class="cls-19" x="939.44" y="380.37" width="40.91" height="40.91" transform="translate(118.96 -211.45) rotate(13.39)"/><path class="cls-21" d="M938.61,380a13.64,13.64,0,0,1,2.6-3.73,17.49,17.49,0,0,1,4.72-3.49,14.36,14.36,0,0,1,5.6-1.51c.52,0,1.05,0,1.57,0,1.44,0,2.88.1,4.48.22a33.12,33.12,0,0,1,5.78,1,32,32,0,0,1,5.36,2.08,29.58,29.58,0,0,1,5.61,3.69c-1.73-.56-3.85-1.24-6.16-2a29,29,0,0,0-5.39-.74c-.63,0-1.28-.06-1.93-.06a30,30,0,0,0-3.28.18,22.55,22.55,0,0,0-5.06,1.25,36.22,36.22,0,0,1-4.5,1.29l-5,1.1A28.39,28.39,0,0,1,938.61,380Z"/><path class="cls-25" d="M930.63,973.06c38.54-71-62.86-122.7-27.37-156.16C927,794.53,1016.41,793,1073.09,794.46a56,56,0,0,1,54.55,53.78c3.75,94.06-45.92,110.62-45.92,110.62Z"/><polyline class="cls-5" points="1291.86 673.11 1182.24 673.11 1204.16 746.44 1269.93 746.44 1291.86 673.11"/></g></svg>