<svg class="" width="64px" height="64px" viewBox="0 0 1024 1024" xmlns="http://www.w3.org/2000/svg" style="display: inline-block; vertical-align: middle;"><path d="M0 40.649h1024v942.702h-1024v-942.702z" fill="rgb(42, 98, 133)"></path><path d="M515.289 214.902h-33.476l-121.349 228.95h1.195l-121.349-228.95h-77.114v31.084h43.339v285.74h-43.339v31.384h121.649v-31.384h-41.845v-214.903c0.298-11.059-1.195-28.395-1.195-28.395h1.794c0 0 3.886 17.037 8.070 26.601l89.368 170.367h40.65l89.368-170.367c3.886-9.864 8.070-26.601 8.070-26.601h1.195c0 0-2.092 17.934-1.195 28.395v215.5h-41.845v31.384h121.349v-31.384h-43.339v-317.422z" fill="rgb(255, 255, 255)"></path><path d="M240.606 695.519c-20.922-8.070-39.154-15.244-39.154-31.084 0-23.014 24.509-24.509 32.281-24.509 27.498 0 42.442 15.244 42.442 15.244l3.288 3.886 15.244-25.406-1.794-2.092c-0.897-0.897-19.129-21.222-58.582-21.222-38.557 0-65.756 22.118-65.756 54.398 0 35.269 31.084 47.523 58.582 58.582 21.222 8.369 39.154 15.542 39.154 31.084 0 18.531-17.336 25.108-32.579 25.108-31.683 0-50.812-20.922-51.409-20.922l-2.989-3.288-17.934 23.612 2.092 2.092c0.897 1.195 24.509 27.498 69.94 27.498 38.258 0 65.756-23.014 65.756-54.697 0-34.97-31.084-47.823-58.582-58.284v0z" fill="rgb(255, 255, 255)"></path><path d="M403.502 610.037c-41.546 0-66.054 20.922-66.951 21.52l-2.691 2.092 15.542 25.406 3.288-2.691c0 0 20.922-16.439 48.72-16.439s41.546 14.048 41.546 43.339v0.897h-6.277c-28.395 0-114.774 0-114.774 66.951 0 37.661 33.176 57.686 65.756 57.686 30.187 0 47.823-17.037 56.789-29.292 0 0.298 0 0.897 0 1.195v23.612h31.084v-120.454c-0.598-47.523-26.003-73.826-72.032-73.826v0zM443.255 711.958v4.184c0 31.084-20.922 63.962-51.708 63.962-25.108 0-36.465-15.542-36.465-30.487 0-33.176 43.639-37.361 81.896-37.361h6.277v-0.298z" fill="rgb(255, 255, 255)"></path><path d="M580.147 750.814c-1.195 2.989-2.092 6.277-3.288 9.864-0.897-2.989-2.092-6.277-2.989-9.864l-51.409-135.996h-34.073l72.631 189.497h31.683l72.032-189.497h-33.476l-51.111 135.996z" fill="rgb(255, 255, 255)"></path><path d="M763.368 610.037c-54.996 0-93.254 40.65-93.254 99.232 0 57.387 41.546 99.232 98.934 99.232 41.845 0 68.745-25.406 69.94-26.303l2.092-2.092-15.244-25.406-3.288 3.288c0 0-21.222 20.922-52.604 20.922-43.339 0-64.56-31.683-66.653-64.56h138.985l0.298-3.288c0-0.298 0.897-8.369 0.897-13.151-0.298-43.639-25.406-87.874-80.103-87.874v0zM704.486 686.852c6.277-29.59 28.395-48.42 57.985-48.42 21.52 0 44.834 12.853 47.523 48.42h-105.509z" fill="rgb(255, 255, 255)"></path><path d="M826.733 388.857c0 63.664-39.753 120.454-88.173 133.904-17.934 6.875-36.465 8.967-58.881 8.967h-62.468v-285.74h62.468c22.417 0 40.35 0.897 59.778 8.070 50.214 15.542 87.276 70.837 87.276 134.8v0zM862.6 388.857c0-84.885-43.339-144.961-109.693-165.885-23.314-6.875-44.834-8.369-73.826-8.369h-145.56v31.384h43.339v316.824h102.221c27.498 0 50.812-2.092 73.228-9.266 68.446-21.52 110.291-80.401 110.291-164.689v0z" fill="rgb(255, 255, 255)"></path><path d="M901.454 736.766c19.428 0 35.269 16.14 35.269 36.165s-15.542 36.165-35.269 36.165c-19.428 0-34.672-16.14-34.672-36.165s14.945-36.165 34.672-36.165zM901.454 801.626c15.542 0 28.095-12.853 28.095-29.292s-12.255-29.292-28.095-29.292-27.498 12.853-27.498 29.292 11.656 29.292 27.498 29.292zM889.5 753.803h14.347c6.875 0 11.956 4.184 11.956 11.358 0 5.38-3.886 8.967-6.875 9.864v0c0 0 0.298 0.298 1.195 2.092l7.173 13.45h-7.772l-6.875-14.347h-5.978v14.347h-7.772v-36.764zM902.351 771.736c3.886 0 5.978-2.691 5.978-6.277 0-3.886-2.691-5.978-5.978-5.978h-5.978v12.255h5.978z" fill="rgb(255, 255, 255)"></path></svg>